<?xml version="1.0" standalone="no"?>
<!DOCTYPE svg PUBLIC "-//W3C//DTD SVG 20010904//EN"
 "http://www.w3.org/TR/2001/REC-SVG-20010904/DTD/svg10.dtd">
<svg version="1.0" xmlns="http://www.w3.org/2000/svg"
 width="512.000000pt" height="512.000000pt" viewBox="0 0 512.000000 512.000000"
 preserveAspectRatio="xMidYMid meet">
<metadata>
Created by potrace 1.14, written by Peter Selinger 2001-2017
</metadata>
<g transform="translate(0.000000,512.000000) scale(0.100000,-0.100000)"
fill="#000000" stroke="none">
<path d="M4332 5102 c-32 -10 -90 -58 -107 -91 -20 -40 -24 -100 -10 -141 l12
-35 -366 -565 c-351 -540 -369 -565 -399 -567 -18 -2 -47 -9 -66 -17 -37 -16
-34 -17 -501 225 l-149 77 -17 52 c-19 58 -47 92 -96 115 -86 41 -184 10 -234
-74 -24 -40 -33 -114 -19 -142 8 -14 0 -29 -38 -76 -64 -81 -425 -517 -432
-523 -3 -3 -32 -39 -65 -80 -33 -41 -62 -77 -65 -80 -3 -3 -27 -31 -53 -62
-45 -53 -52 -58 -90 -58 -23 -1 -55 -7 -72 -14 -28 -12 -35 -10 -115 32 -47
25 -118 63 -159 84 -41 22 -97 52 -125 67 -28 16 -96 52 -151 81 -55 29 -101
53 -102 54 -1 1 -4 13 -7 28 -20 115 -120 181 -229 153 -84 -21 -136 -92 -133
-181 4 -127 134 -209 252 -159 34 14 38 13 97 -19 34 -18 98 -53 142 -76 44
-24 98 -53 120 -65 22 -12 94 -50 160 -85 66 -35 125 -67 131 -72 6 -4 14 -26
18 -48 7 -47 56 -107 103 -126 41 -18 105 -18 146 0 75 31 124 125 107 202
-10 41 -9 42 56 120 23 27 70 83 103 124 34 41 70 84 79 95 19 22 306 372 325
395 132 163 129 160 173 160 23 0 57 7 77 15 l35 15 189 -97 c440 -226 427
-219 434 -250 10 -47 37 -90 75 -119 47 -36 134 -45 184 -19 83 43 124 134 96
214 l-14 43 140 216 c78 120 179 276 226 347 109 167 148 227 267 410 53 83
99 152 100 154 2 1 21 5 42 8 95 13 163 89 163 181 0 43 -28 109 -56 134 -45
40 -122 57 -182 40z"/>
<path d="M4105 3839 c-75 -10 -131 -53 -160 -121 -13 -32 -15 -130 -16 -740 0
-387 -4 -691 -9 -677 -12 42 -48 84 -93 109 -39 23 -49 23 -331 26 -169 1
-308 -2 -331 -8 -53 -13 -101 -50 -125 -99 -11 -21 -21 -39 -23 -39 -1 0 -2
103 -2 228 -1 240 -5 269 -50 320 -11 13 -38 33 -60 45 -38 19 -56 21 -350 21
-340 1 -343 1 -403 -62 -54 -58 -53 -50 -53 -651 1 -550 1 -556 -18 -516 -22
47 -64 89 -106 106 -36 14 -579 20 -639 7 -52 -12 -93 -42 -125 -94 l-27 -42
0 231 c-1 253 -6 288 -54 337 -62 64 -65 64 -405 64 l-310 1 -45 -25 c-28 -16
-55 -43 -75 -74 l-30 -49 2 -921 2 -921 -83 -1 c-98 -1 -133 -18 -166 -77 -39
-69 -13 -152 61 -190 32 -17 150 -18 2469 -16 1448 1 2449 6 2469 11 79 22
122 121 84 195 -33 63 -62 78 -164 81 l-89 4 0 1256 c-1 2057 -2 2131 -24
2172 -25 46 -71 87 -114 101 -36 12 -532 19 -607 8z"/>
</g>
</svg>
